<svg xmlns="http://www.w3.org/2000/svg" viewBox="0 0 777.4 443.95"><defs><style>.cls-1{fill:#0b62b7;stroke:#0b62b7;stroke-miterlimit:10;}</style></defs><g id="Capa_2" data-name="Capa 2"><g id="Capa_1-2" data-name="Capa 1"><path class="cls-1" d="M757,45.68v3.91h-1V46.52l-1.1-.18.16-1Zm0,8.91v5h-1v-5Zm0,10v5h-1v-5Zm0,10v5h-1v-5Zm0,10v5h-1v-5Zm0,10v5h-1v-5Zm0,10v5h-1v-5Zm0,10v5h-1v-5Zm0,10v5h-1v-5Zm0,10v5h-1v-5Zm0,10v5h-1v-5Zm0,10v5h-1v-5Zm0,10v5h-1v-5Zm0,10v5h-1v-5Zm0,10v5h-1v-5Zm0,10v5h-1v-5Zm0,10v5h-1v-5Zm0,10v5h-1v-5Zm0,10v5h-1v-5Zm0,10v5h-1v-5Zm0,10v5h-1v-5Zm0,10v5h-1v-5Zm0,10v5h-1v-5Zm0,10v5h-1v-5Zm0,10v5h-1v-5Zm0,10v5h-1v-5Zm0,10v5h-1v-5Zm0,10v5h-1v-5Zm0,10v5h-1v-5Zm0,10v5h-1v-5Zm0,10v5h-1v-5Zm0,10v5h-1v-5Zm0,10v5h-1v-5Zm0,10v5h-1v-5Zm0,10v5h-1v-5Zm0,10v5h-1v-5Zm0,10v5h-1v-5Zm0,10V417h-3.63v-1H756v-1.37ZM750.1,44.52l-.17,1L745,44.69l.16-1ZM748.38,416v1h-5v-1ZM740.19,42.9l-.16,1-4.95-.8.16-1ZM738.38,416v1h-5v-1ZM730.29,41.3l-.16,1-5-.79.16-1ZM728.38,416v1h-5v-1Zm-8-376.23-.15,1-5-.78.15-1Zm-2,376.23v1h-5v-1ZM710.5,38.18l-.16,1-5-.77.16-1ZM708.38,416v1h-5v-1ZM700.6,36.66l-.15,1-5-.75.15-1ZM698.38,416v1h-5v-1ZM690.7,35.15l-.15,1-4.95-.75.15-1ZM688.38,416v1h-5v-1ZM680.8,33.66l-.15,1-4.95-.73.15-1ZM678.38,416v1h-5v-1ZM670.9,32.2l-.15,1-5-.73.14-1ZM668.38,416v1h-5v-1ZM661,30.75l-.14,1-5-.71.15-1ZM658.38,416v1h-5v-1Zm-7.3-386.63-.14,1-5-.71.14-1ZM648.38,416v1h-5v-1Zm-7.21-388-.14,1-4.95-.7.14-1Zm-2.79,388v1h-5v-1ZM631.26,26.55l-.14,1-5-.69.13-1ZM628.38,416v1h-5v-1Zm-7-390.77-.13,1-5-.67.13-1Zm-3,390.77v1h-5v-1Zm-7-392.11-.14,1-5-.65.13-1Zm-3,392.11v1h-5v-1ZM601.5,22.54l-.13,1-5-.64.13-1ZM598.38,416v1h-5v-1Zm-6.8-394.71-.13,1-5-.64.12-1ZM588.38,416v1h-5v-1ZM581.65,20l-.12,1-5-.62.12-1Zm-3.27,396v1h-5v-1Zm-6.66-397.2-.12,1-5-.61.12-1ZM568.38,416v1h-5v-1Zm-6.56-398.4-.12,1-5-.59.11-1ZM558.38,416v1h-5v-1ZM551.89,16.39l-.12,1-5-.57.11-1ZM548.38,416v1h-5v-1ZM541.93,15.25l-.11,1-5-.56.11-1ZM538.38,416v1h-5v-1ZM532,14.14l-.11,1-5-.54.1-1ZM528.38,416v1h-5v-1ZM522,13.07l-.11,1-5-.52.1-1ZM518.38,416v1h-5v-1ZM512.06,12l-.1,1-5-.5.09-1ZM508.38,416v1h-5v-1ZM502.11,11l-.1,1-5-.48.09-1ZM498.38,416v1h-5v-1ZM492.14,10.1l-.09,1-5-.45.09-1ZM488.38,416v1h-5v-1ZM482.17,9.2l-.09,1-5-.42.08-1ZM478.38,416v1h-5v-1ZM472.2,8.35l-.08,1-5-.4.08-1ZM468.38,416v1h-5v-1ZM462.22,7.57l-.08,1-5-.37.07-1ZM458.38,416v1h-5v-1ZM452.24,6.84l-.07,1-5-.34.06-1ZM448.38,416v1h-5v-1ZM442.25,6.19l-.07,1-5-.3.06-1ZM438.38,416v1h-5v-1ZM432.25,5.61l-.05,1-5-.25.05-1ZM428.38,416v1h-5v-1ZM422.25,5.13l0,1-5-.21,0-1ZM418.38,416v1h-5v-1ZM412.24,4.75l0,1-5-.15,0-1ZM408.38,416v1h-5v-1ZM402.23,4.49l0,1-5-.08v-1ZM398.38,416v1h-5v-1ZM392.22,4.37v1h-5v-1h5ZM388.38,416v1h-5v-1ZM382.23,5.42c-1.69,0-3.35.06-5,.11l0-1c1.64,0,3.31-.08,5-.11ZM378.38,416v1h-5v-1ZM372.25,5.69c-1.7.07-3.36.14-5,.23l-.06-1,5-.23ZM368.38,416v1h-5v-1ZM362.28,6.23c-1.7.12-3.36.26-5,.41l-.09-1c1.62-.15,3.29-.28,5-.41ZM358.38,416v1h-5v-1ZM357.67,38.9c0,1.33,0,2.68-.05,4.06l-1,0c0-1.37.05-2.72.05-4V38h1Zm-.1-6-1,0c-.06-1.65-.15-3.32-.26-5l1-.06C357.42,29.58,357.51,31.26,357.57,32.93Zm-.16,15c-.1,1.69-.22,3.37-.37,5l-1-.1c.15-1.62.28-3.29.38-5Zm-.5-25.06-1,.09c-.15-1.66-.34-3.33-.54-5l1-.12C356.57,19.57,356.75,21.24,356.91,22.92ZM356.48,58c-.22,1.66-.47,3.33-.74,5l-1-.17c.27-1.62.52-3.28.74-4.93Zm-.82-45-1,.15c-.27-1.74-.56-3.39-.86-4.9l1-.2C355.09,9.54,355.39,11.2,355.66,13Zm-.87,54.92c-.35,1.65-.73,3.29-1.15,4.89l-1-.25c.41-1.58.79-3.22,1.14-4.85Zm-2.52,9.72c-.5,1.61-1,3.21-1.6,4.77l-.94-.35c.56-1.53,1.09-3.12,1.59-4.71ZM348.82,87c-.66,1.55-1.37,3.09-2.1,4.57l-.9-.45c.73-1.46,1.43-3,2.08-4.51ZM348.38,416v1h-5v-1Zm-4-319.91c-.83,1.46-1.72,2.9-2.62,4.28l-.84-.55c.9-1.36,1.77-2.79,2.59-4.23Zm-5.51,8.4c-1,1.33-2.07,2.65-3.15,3.91l-.76-.65c1.07-1.25,2.12-2.55,3.11-3.86ZM338.38,416v1h-5v-1Zm-6.09-303.9c-1.17,1.2-2.39,2.36-3.64,3.47l-.66-.75c1.23-1.09,2.43-2.24,3.59-3.42ZM328.38,416v1h-5v-1Zm-3.59-297.22c-1.31,1-2.68,2-4.07,3l-.56-.83c1.37-.93,2.72-1.91,4-2.91ZM318.38,416v1h-5v-1Zm-1.91-291.59c-1.42.84-2.91,1.65-4.4,2.42l-.45-.89c1.47-.76,2.94-1.56,4.34-2.39ZM308.38,416v1h-5v-1Zm-.85-287c-1.5.66-3.07,1.29-4.65,1.89l-.35-.94c1.57-.59,3.11-1.22,4.6-1.87Zm-9.15,287v1h-5v-1Zm-.24-283.48c-1.57.5-3.19,1-4.81,1.41l-.26-1c1.61-.43,3.21-.9,4.77-1.4Zm-9.68,2.59c-1.6.36-3.25.69-4.92,1l-.18-1c1.66-.3,3.3-.62,4.88-1ZM288.38,416v1h-5v-1Zm-9.79-279.12c-1.62.22-3.3.42-5,.6l-.1-1c1.67-.17,3.33-.37,4.94-.59ZM278.38,416v1h-5v-1Zm-9.76-278.09c-1.62.11-3.31.2-5,.27l0-1c1.69-.07,3.37-.16,5-.27ZM268.38,416v1h-5v-1Zm-9.78-277.7h-5v-1h5ZM258.38,416v1h-5v-1ZM248.6,137.19v1l-5-.09,0-1ZM248.38,416v1h-5v-1Zm-9.77-279,0,1-5-.13,0-1Zm-.23,279v1h-5v-1Zm-9.75-279.25,0,1-5-.18,0-1ZM228.38,416v1h-5v-1Zm-9.74-279.63,0,1-5-.24.05-1ZM218.38,416v1h-5v-1Zm-9.72-280.13,0,1-5-.29.07-1C205.31,135.65,207,135.74,208.66,135.83ZM208.38,416v1h-5v-1Zm-9.69-280.74-.07,1-5-.35.08-1ZM198.38,416v1h-5v-1Zm-9.65-281.48-.08,1-5-.43.09-1ZM188.38,416v1h-5v-1Zm-9.6-282.37-.1,1-5-.51.1-1C175.44,133.26,177.09,133.43,178.78,133.59ZM178.38,416v1h-5v-1Zm-9.53-283.42-.11,1c-1.7-.19-3.35-.39-5-.6l.12-1ZM168.38,416v1h-5v-1ZM158.94,131.3l-.13,1-5-.7.15-1ZM158.38,416v1h-5v-1Zm-9.31-286.12-.16,1c-1.7-.28-3.34-.55-4.93-.83l.17-1C145.74,129.29,147.38,129.57,149.07,129.84ZM148.38,416v1h-5v-1Zm-4.57-3.18-1,0c-.06-1.66-.17-3.33-.32-5l1-.09C143.64,409.42,143.75,411.11,143.81,412.78Zm-.91-10-1,.14c-.24-1.63-.53-3.27-.87-4.88l1-.2C142.36,399.47,142.65,401.14,142.9,402.79Zm-2-9.83-1,.26c-.43-1.6-.9-3.2-1.42-4.75l1-.32C140,389.73,140.43,391.34,140.87,393Zm-1.63-264.83-.19,1c-1.7-.32-3.33-.65-4.91-1l.21-1C135.91,127.48,137.54,127.81,139.24,128.13Zm-1.53,255.31-.93.37c-.61-1.53-1.28-3.06-2-4.56l.91-.42C136.42,380.34,137.09,381.89,137.71,383.44Zm-4.26-9.09-.88.47c-.78-1.44-1.61-2.88-2.49-4.3l.86-.52C131.82,371.43,132.66,372.89,133.45,374.35Zm-4-248.24-.22,1c-1.7-.38-3.33-.77-4.87-1.15l.24-1C126.16,125.34,127.77,125.72,129.47,126.11ZM128.19,365.8l-.83.57c-.93-1.35-1.92-2.69-2.94-4l.8-.61C126.25,363.08,127.25,364.44,128.19,365.8ZM122,357.86l-.76.65c-1.07-1.25-2.19-2.5-3.32-3.7l.72-.69C119.83,355.34,121,356.59,122,357.86ZM119.8,123.69l-.26,1c-1.66-.46-3.28-.93-4.81-1.41l.3-1C116.55,122.77,118.15,123.24,119.8,123.69Zm-4.65,226.86-.69.72c-1.17-1.13-2.4-2.27-3.65-3.38l.66-.75C112.73,348.26,114,349.41,115.15,350.55Zm-4.85-229.8-.33.94c-1.66-.58-3.24-1.17-4.69-1.77l.37-.93C107.09,119.58,108.66,120.17,110.3,120.75Zm-2.65,223.13-.63.77c-1.28-1-2.6-2.08-3.92-3.08l.61-.8C105,341.78,106.37,342.83,107.65,343.88ZM101.14,117l-.45.89a32.76,32.76,0,0,1-2.89-1.61l-.14.41-1-.33.6-1.68.54.42A23.69,23.69,0,0,0,101.14,117ZM99.65,337.81l-.57.82c-1.34-.94-2.73-1.88-4.13-2.79l.54-.84C96.9,335.92,98.3,336.87,99.65,337.81ZM96,121.38l-1.67,4.71-.94-.33L95.05,121Zm-3.33,9.43L91,135.52l-.94-.33,1.66-4.71ZM91.24,332.32l-.52.86c-1.39-.85-2.83-1.7-4.3-2.53l.5-.87C88.39,330.62,89.84,331.47,91.24,332.32ZM89.35,140.24,87.68,145l-.94-.33,1.66-4.71ZM86,149.67l-1.66,4.72-.94-.34,1.66-4.71ZM82.7,159.1,81,163.82l-.94-.34,1.66-4.71Zm-.18,168.27-.47.88c-1.45-.77-2.94-1.53-4.45-2.28l.45-.9C79.56,325.82,81.06,326.6,82.52,327.37ZM79.37,168.53l-1.66,4.72-.95-.33,1.67-4.72ZM76.05,178l-1.67,4.72-.94-.33,1.66-4.72ZM73.52,322.9l-.42.91c-1.53-.71-3.06-1.39-4.56-2l.4-.92Q71.21,321.84,73.52,322.9Zm-.8-135.51-1.66,4.72-.94-.33,1.66-4.72Zm-3.32,9.43-1.67,4.72-.94-.33,1.66-4.72Zm-3.33,9.44L64.41,211l-.95-.33,1.67-4.72ZM64.31,318.91l-.38.93q-2.37-1-4.65-1.82l.35-.94Q61.93,318,64.31,318.91ZM62.75,215.69l-1.67,4.71-.94-.33,1.66-4.71Zm-3.33,9.43-1.66,4.71-.95-.33,1.67-4.71Zm-3.32,9.43-1.67,4.71-.94-.33,1.66-4.71Zm-1.19,80.81-.33.95c-1.63-.58-3.21-1.11-4.74-1.61l.31-.95Q52.45,314.5,54.91,315.36ZM52.77,244l-1.66,4.72-.94-.34,1.66-4.71Zm-3.32,9.43-1.67,4.72-.94-.34,1.66-4.71Zm-3.33,9.43-1.66,4.72-1-.33,1.67-4.72Zm-.76,49.4-.29,1c-1.72-.51-3.33-1-4.81-1.38l.26-1C42,311.26,43.63,311.73,45.36,312.24Zm-2.57-40L41.13,277l-.94-.33,1.66-4.72Zm-3.32,9.43-1.66,4.72-1-.33,1.67-4.72Zm-3.32,9.44-1.67,4.71-.94-.33,1.66-4.72Zm-.5,18.44-.24,1c-2.2-.54-3.87-.91-4.88-1.12l.2-1C31.75,308.66,33.43,309,35.65,309.58Zm-2.83-9-1.66,4.71-.95-.33,1.67-4.72Z"/><path class="cls-1" d="M366.84,5.56c-.12.73-.23,2.38-.37,4.67-.7,11.05-2.57,40.42-13.77,67.71-14.06,34.29-37.66,53.89-70.12,58.28-43.43,5.87-93.39-4.93-127.66-15A536.07,536.07,0,0,1,90.86,97.91L30.07,309.18a116.11,116.11,0,0,1,47.74,16.05l-.51.86a115.18,115.18,0,0,0-47.93-16l-.59-.06L90.22,96.52l.53.25a530.4,530.4,0,0,0,64.47,23.48c34.17,10.06,84,20.82,127.23,15,32.08-4.34,55.41-23.74,69.33-57.67,11.13-27.13,13-56.38,13.69-67.39.15-2.41.25-4,.39-4.78Z"/><path class="cls-1" d="M393.29,58.52l-1.12.95-.65-.76,1.13-1Zm-4.93,4.18-3.82,3.24-.64-.77,3.81-3.23Zm-7.63,6.47-3.81,3.23-.65-.76,3.81-3.23Zm-7.63,6.47-3.81,3.23-.65-.76,3.82-3.24Zm-7.63,6.46-3.81,3.24-.65-.77,3.82-3.23Zm-7.62,6.47L354,91.8l-.64-.76,3.81-3.23ZM350.22,95l-3.82,3.23-.64-.76,3.81-3.24Zm-7.63,6.46-3.81,3.24-.65-.77,3.81-3.23ZM335,108l-3.81,3.23-.65-.76,3.82-3.23Zm-7.63,6.47-3.81,3.23-.64-.76,3.81-3.24Zm-7.62,6.46-3.82,3.24-.64-.77,3.81-3.23Zm-7.63,6.47-3.81,3.23-.65-.76,3.81-3.23Zm-7.63,6.47-3.81,3.23-.65-.76,3.81-3.24Zm-7.63,6.46L293,143.54l-.65-.77,3.82-3.23Zm-7.62,6.47L285.38,150l-.64-.76,3.81-3.23Zm-7.63,6.47-3.82,3.23-.64-.76,3.81-3.24Zm-7.63,6.46-3.81,3.24-.65-.77,3.81-3.23Zm-7.63,6.47-3.81,3.23-.65-.76,3.82-3.23Zm-7.63,6.47-3.81,3.23-.65-.76,3.82-3.24Zm-7.62,6.46-3.82,3.24-.64-.77,3.81-3.23Zm-7.63,6.47-3.81,3.23L239,188l3.81-3.23ZM235.8,192,232,195.27l-.65-.76,3.82-3.24Zm-7.63,6.46-3.81,3.24-.65-.77,3.82-3.23ZM220.55,205l-3.82,3.23-.64-.76,3.81-3.23Zm-7.63,6.47-3.82,3.23-.64-.76,3.81-3.24Zm-7.63,6.46-3.81,3.24-.65-.77,3.81-3.23Zm-7.63,6.47-3.81,3.23-.65-.76,3.82-3.23ZM190,230.84l-3.82,3.23-.65-.76,3.82-3.24Zm-7.63,6.46-3.82,3.24-.64-.77,3.81-3.23Zm-7.63,6.47L171,247l-.65-.76,3.81-3.23Zm-7.63,6.47-3.81,3.23-.65-.76,3.81-3.24Zm-7.63,6.46-3.81,3.24-.65-.77,3.82-3.23Zm-7.62,6.47-3.82,3.23-.64-.76,3.81-3.23Zm-7.63,6.47-3.82,3.23-.64-.76,3.81-3.24Zm-7.63,6.46-3.81,3.24-.65-.77,3.81-3.23ZM129,282.57l-3.81,3.23-.65-.76,3.82-3.23ZM121.38,289l-3.81,3.23-.65-.76,3.82-3.24Zm-7.62,6.46-3.82,3.24-.64-.77,3.81-3.23ZM106.13,302l-3.81,3.23-.65-.76,3.81-3.23Zm-7.63,6.47-3.81,3.23-.65-.76,3.82-3.24Zm-7.63,6.46-3.81,3.24-.65-.77,3.82-3.23Zm-7.62,6.47-3.82,3.23-.64-.76,3.81-3.23Zm-7.63,6.47-3.82,3.23-.64-.76L75,327.07ZM68,334.3l-3.81,3.24-.65-.77,3.81-3.23Z"/><circle class="cls-1" cx="29.11" cy="306.94" r="5.96"/><circle class="cls-1" cx="144.28" cy="416.46" r="5.96"/><circle class="cls-1" cx="98.16" cy="117" r="5.96"/><circle class="cls-1" cx="353.95" cy="6.46" r="5.96"/><circle class="cls-1" cx="92.2" cy="97.86" r="5.96"/><circle class="cls-1" cx="756.51" cy="416.46" r="5.96"/><circle class="cls-1" cx="756.51" cy="44.58" r="5.96"/><path class="cls-1" d="M150.25,443.45h-1.6v-4.2h-8.27v4.18h-1.14a17.46,17.46,0,0,0-.24-2,7.82,7.82,0,0,0-.5-1.64,7.11,7.11,0,0,0-.93-1.5v-.81h11.08v-3.9h1.6Z"/><path class="cls-1" d="M13.36,315.31h-.68a3.13,3.13,0,0,1-1.59-.4,4.86,4.86,0,0,1-1.28-1.09,9.79,9.79,0,0,1-1.05-1.53q-.48-.84-.9-1.71c-.39-.81-.78-1.55-1.15-2.22a6.56,6.56,0,0,0-1.2-1.63,2,2,0,0,0-1.46-.62,1.63,1.63,0,0,0-1.1.39,2.32,2.32,0,0,0-.71,1.13A5.74,5.74,0,0,0,2,309.48a6,6,0,0,0,.36,2.27A2.64,2.64,0,0,0,3.28,313a2.16,2.16,0,0,0,1.21.38h.63v1.75l-.28,0H4.49a3.27,3.27,0,0,1-2.22-.76,4.67,4.67,0,0,1-1.33-2.1,9.67,9.67,0,0,1-.44-3,9,9,0,0,1,.21-2,5.13,5.13,0,0,1,.64-1.62,3.22,3.22,0,0,1,1.08-1.09A3,3,0,0,1,4,304.2a3.39,3.39,0,0,1,1.68.4A4.83,4.83,0,0,1,7,305.69a8.7,8.7,0,0,1,1.06,1.56c.32.59.63,1.22.92,1.88l.85,1.78a7.3,7.3,0,0,0,.86,1.43,2,2,0,0,0,1,.74v-9h1.69Z"/><path class="cls-1" d="M85.52,345.9a8.29,8.29,0,0,1-.14,1.53,3.78,3.78,0,0,1-.46,1.26,2.27,2.27,0,0,1-.85.86,2.56,2.56,0,0,1-1.29.31,2.48,2.48,0,0,1-1.85-.67,3.91,3.91,0,0,1-1-1.85,13.41,13.41,0,0,1-.36-2.76q-.06-1.57-.06-3.39H79a2.29,2.29,0,0,0-1.3.31,1.68,1.68,0,0,0-.66,1,7.72,7.72,0,0,0-.2,2,7,7,0,0,0,.18,1.74,2.34,2.34,0,0,0,.48,1,.9.9,0,0,0,.7.35h.34v1.78a.45.45,0,0,1-.16,0h-.19a2.09,2.09,0,0,1-1.5-.58,3.81,3.81,0,0,1-1-1.72,12.06,12.06,0,0,1,0-5.56,3,3,0,0,1,1-1.63,3.21,3.21,0,0,1,2-.56h4.64a.9.9,0,0,0,.54-.13.56.56,0,0,0,.17-.49v-.92h1.18a6.65,6.65,0,0,1,.18.69,4.56,4.56,0,0,1,.08.82,2.1,2.1,0,0,1-.22,1.08,1.13,1.13,0,0,1-.61.51,3.2,3.2,0,0,1-.86.17v.13a5.05,5.05,0,0,1,.94,1.26,7.08,7.08,0,0,1,.58,1.62A8.82,8.82,0,0,1,85.52,345.9Zm-1.46-.35a6.52,6.52,0,0,0-.68-2.92,3.45,3.45,0,0,0-.79-1.05,1.54,1.54,0,0,0-1-.39h-.75c0,1.52,0,2.79.14,3.8a6.12,6.12,0,0,0,.54,2.27,1.32,1.32,0,0,0,1.23.75,1,1,0,0,0,.82-.35,2.26,2.26,0,0,0,.41-.94A5.79,5.79,0,0,0,84.06,345.55Z"/><path class="cls-1" d="M112,141a5.41,5.41,0,0,1-.43,2.19,3.82,3.82,0,0,1-1.34,1.6v.13l1.54.18v1.44H98.41v-1.8h5v-.11a4.11,4.11,0,0,1-.86-1,5,5,0,0,1-.52-1.27,6,6,0,0,1-.18-1.52,5.23,5.23,0,0,1,.57-2.53,3.9,3.9,0,0,1,1.69-1.62,7.15,7.15,0,0,1,5.62,0,3.79,3.79,0,0,1,1.69,1.67A5.58,5.58,0,0,1,112,141Zm-1.55.35a4.19,4.19,0,0,0-.35-1.76,2.57,2.57,0,0,0-1.1-1.16A3.74,3.74,0,0,0,107,138h-.31a3.87,3.87,0,0,0-1.92.42,2.58,2.58,0,0,0-1.09,1.15,3.87,3.87,0,0,0-.36,1.73,4.62,4.62,0,0,0,.2,1.39,3.05,3.05,0,0,0,.62,1.1,2.77,2.77,0,0,0,1.06.72,4.38,4.38,0,0,0,1.53.25H107a3.8,3.8,0,0,0,1.93-.44,2.72,2.72,0,0,0,1.1-1.2A4.18,4.18,0,0,0,110.41,141.32Z"/><path class="cls-1" d="M339,5.82a7.27,7.27,0,0,1-.57,3.06,3.88,3.88,0,0,1-1.7,1.87,6.54,6.54,0,0,1-5.6,0,4,4,0,0,1-1.7-1.87,7.27,7.27,0,0,1-.57-3.06,8,8,0,0,1,.25-2,5,5,0,0,1,.75-1.61A3.43,3.43,0,0,1,332.77.76V2.58a2,2,0,0,0-1.38.46,2.81,2.81,0,0,0-.81,1.21,4.79,4.79,0,0,0-.26,1.57,4.8,4.8,0,0,0,.36,1.92A2.77,2.77,0,0,0,331.79,9a3.66,3.66,0,0,0,1.95.46h.37a3.63,3.63,0,0,0,2-.47,2.78,2.78,0,0,0,1.12-1.3,4.92,4.92,0,0,0,.36-1.95,4.59,4.59,0,0,0-.27-1.57A2.65,2.65,0,0,0,336.47,3a2,2,0,0,0-1.37-.47V.76a3.42,3.42,0,0,1,1.7.4A3.58,3.58,0,0,1,338,2.23a5.23,5.23,0,0,1,.74,1.6A7.92,7.92,0,0,1,339,5.82Z"/><path class="cls-1" d="M776.68,426.45h-3.11v7.81h-1.49c-.85-.64-1.72-1.23-2.61-1.78a24.12,24.12,0,0,0-2.75-1.46,18.7,18.7,0,0,0-2.91-1v-2a13.19,13.19,0,0,1,2,.66c.67.29,1.32.6,2,.94s1.24.7,1.81,1.07,1.06.72,1.51,1.05.79.62,1.05.86v-6.09h-4.2c-.21-.09-.42-.19-.63-.27l-.62-.26-.6-.24a3.24,3.24,0,0,0-.54-.16v-.87h6.59v-2.26h1.49v2.26h3.11Z"/><path class="cls-1" d="M776.9,31.69a8.28,8.28,0,0,1-.55,3.19,4.61,4.61,0,0,1-1.5,2,3.51,3.51,0,0,1-2.15.71V35.85a2.18,2.18,0,0,0,1.43-.56,3.55,3.55,0,0,0,1-1.45,5.46,5.46,0,0,0,.35-2,5.27,5.27,0,0,0-.32-1.86,3.34,3.34,0,0,0-1-1.44A2.47,2.47,0,0,0,772.5,28a2.41,2.41,0,0,0-1.53.47,2.81,2.81,0,0,0-.91,1.29,5.53,5.53,0,0,0-.3,1.92,6.41,6.41,0,0,0,.18,1.53,4.67,4.67,0,0,0,.53,1.31,2.59,2.59,0,0,0,.87.93L771.08,37,764,36.33V27h1.7v7.84l3.84.37a5.66,5.66,0,0,1-.57-.95,7.73,7.73,0,0,1-.47-1.34,7,7,0,0,1-.19-1.72,7.37,7.37,0,0,1,.43-2.59,4,4,0,0,1,1.35-1.86,3.76,3.76,0,0,1,2.34-.69,4.14,4.14,0,0,1,2.33.67,4.4,4.4,0,0,1,1.56,1.94A7.58,7.58,0,0,1,776.9,31.69Z"/><path class="cls-1" d="M335.12,140.66a5.54,5.54,0,0,1-.56,2.59,3.83,3.83,0,0,1-1.69,1.64,7.24,7.24,0,0,1-5.63,0,3.88,3.88,0,0,1-1.69-1.64,5.39,5.39,0,0,1-.57-2.57,5.91,5.91,0,0,1,.18-1.49,5.08,5.08,0,0,1,.53-1.26,3.6,3.6,0,0,1,.85-1v-.11h-5V135H334.9v1.44l-1.55.18v.13a3.87,3.87,0,0,1,1.35,1.64A5.58,5.58,0,0,1,335.12,140.66Zm-1.55-.37a4.19,4.19,0,0,0-.35-1.8,2.73,2.73,0,0,0-1.11-1.22,3.79,3.79,0,0,0-1.92-.44h-.26a4.16,4.16,0,0,0-1.53.25,2.64,2.64,0,0,0-1.06.71,3,3,0,0,0-.61,1.08,4.43,4.43,0,0,0-.2,1.4,4.11,4.11,0,0,0,.35,1.73,2.67,2.67,0,0,0,1.1,1.18,3.83,3.83,0,0,0,1.91.42h.32a3.9,3.9,0,0,0,1.92-.42,2.52,2.52,0,0,0,1.09-1.17A3.92,3.92,0,0,0,333.57,140.29Z"/><path class="cls-1" d="M98.38,75.32a10.24,10.24,0,0,1-.45,3.27,4.18,4.18,0,0,1-1.27,2,3,3,0,0,1-1.94.66H94.5v-1.8h.18a1.83,1.83,0,0,0,1.67-1,5.67,5.67,0,0,0,.58-2.78,6.39,6.39,0,0,0-.6-3,1.94,1.94,0,0,0-1.79-1.1,1.67,1.67,0,0,0-1.3.5,2.61,2.61,0,0,0-.61,1.33,9.9,9.9,0,0,0-.16,1.78v2.23H91.06V75.16a5.89,5.89,0,0,0-.21-1.57,2.65,2.65,0,0,0-.69-1.24,1.7,1.7,0,0,0-1.28-.49,1.59,1.59,0,0,0-1.14.46A3,3,0,0,0,87,73.56a5.38,5.38,0,0,0-.26,1.71A6.21,6.21,0,0,0,87,77.14a3.6,3.6,0,0,0,.74,1.39,1.53,1.53,0,0,0,1.16.53h.22v1.76h-.29A2.68,2.68,0,0,1,87,80.13a4.71,4.71,0,0,1-1.27-2,8.44,8.44,0,0,1-.47-3,7.79,7.79,0,0,1,.42-2.67,4.21,4.21,0,0,1,1.18-1.82,2.86,2.86,0,0,1,3.23-.31,2.88,2.88,0,0,1,.93.94,4.63,4.63,0,0,1,.51,1.24h.09a4,4,0,0,1,1-2.11,2.78,2.78,0,0,1,2.15-.81,2.86,2.86,0,0,1,1.92.7,4.48,4.48,0,0,1,1.26,2A9.41,9.41,0,0,1,98.38,75.32Z"/></g></g></svg>