<svg xmlns="http://www.w3.org/2000/svg" viewBox="0 0 422.21 57.81"><defs><style>.cls-1{fill:#0b62b7;}</style></defs><g id="Capa_2" data-name="Capa 2"><g id="Capa_1-2" data-name="Capa 1"><rect class="cls-1" x="84.34" width="15.63" height="47.95"/><path class="cls-1" d="M204,0V48H189.77V.54c0-.11-.46-.27-.36-.54Z"/><rect class="cls-1" x="127.97" width="14.18" height="47.95"/><rect class="cls-1" x="14.18" width="7.63" height="47.95"/><rect class="cls-1" x="68.71" width="7.63" height="47.95"/><rect class="cls-1" width="6.18" height="57.76"/><rect class="cls-1" x="145.06" width="7.27" height="47.95"/><rect class="cls-1" x="174.87" width="6.91" height="47.95"/><rect class="cls-1" x="118.88" width="6.18" height="47.95"/><rect class="cls-1" x="24.72" width="5.09" height="47.95"/><rect class="cls-1" x="53.08" width="5.09" height="47.95"/><rect class="cls-1" x="32.72" width="4.73" height="47.95"/><rect class="cls-1" x="40.35" width="4.73" height="47.95"/><rect class="cls-1" x="61.08" width="4.73" height="47.95"/><rect class="cls-1" x="167.23" width="4.73" height="47.95"/><rect class="cls-1" x="159.96" width="4.36" height="47.95"/><rect class="cls-1" x="206.86" width="3.27" height="57.76"/><rect class="cls-1" x="112.7" width="3.27" height="47.95"/><path class="cls-1" d="M105.43,0V47.92h-2.54V.54c0-.07-.55-.41-.37-.54Z"/><rect class="cls-1" x="9.09" width="2.18" height="47.95"/><rect class="cls-1" x="47.99" width="2.18" height="47.95"/><rect class="cls-1" x="79.25" width="2.18" height="47.95"/><rect class="cls-1" x="184.68" width="2.18" height="47.95"/><path class="cls-1" d="M157.05,0V48h-1.81V.54c0-.07-.55-.41-.37-.54Z"/><path class="cls-1" d="M109.79,0V47.92a4.41,4.41,0,0,1-1.45,0V.54c0-.07-.55-.41-.36-.54Z"/><rect class="cls-1" x="296.42" width="15.63" height="47.95"/><path class="cls-1" d="M416,0V48H401.85V.54c0-.11-.46-.27-.36-.54Z"/><rect class="cls-1" x="340.05" width="14.18" height="47.95"/><rect class="cls-1" x="226.26" width="7.63" height="47.95"/><rect class="cls-1" x="280.79" width="7.63" height="47.95"/><rect class="cls-1" x="212.08" width="6.18" height="57.76"/><rect class="cls-1" x="357.14" width="7.27" height="47.95"/><rect class="cls-1" x="386.95" width="6.91" height="47.95"/><rect class="cls-1" x="330.96" width="6.18" height="47.95"/><rect class="cls-1" x="236.8" width="5.09" height="47.95"/><rect class="cls-1" x="265.16" width="5.09" height="47.95"/><rect class="cls-1" x="244.8" width="4.73" height="47.95"/><rect class="cls-1" x="252.43" width="4.73" height="47.95"/><rect class="cls-1" x="273.16" width="4.73" height="47.95"/><rect class="cls-1" x="379.31" width="4.73" height="47.95"/><rect class="cls-1" x="372.04" width="4.36" height="47.95"/><rect class="cls-1" x="418.94" width="3.27" height="57.76"/><rect class="cls-1" x="324.78" width="3.27" height="47.95"/><path class="cls-1" d="M317.51,0V57.76H315V.54c0-.07-.54-.41-.36-.54Z"/><rect class="cls-1" x="221.17" width="2.18" height="47.95"/><rect class="cls-1" x="260.07" width="2.18" height="47.95"/><rect class="cls-1" x="291.33" width="2.18" height="47.95"/><rect class="cls-1" x="396.76" width="2.18" height="47.95"/><path class="cls-1" d="M369.13,0V48h-1.81V.54c0-.07-.55-.41-.37-.54Z"/><path class="cls-1" d="M321.87,0V57.76a5,5,0,0,1-1.45,0V.54c0-.07-.55-.41-.37-.54Z"/></g></g></svg>