<svg xmlns="http://www.w3.org/2000/svg" viewBox="0 0 29.84 29.65"><defs><style>.cls-1{fill:#848484;}</style></defs><g id="Capa_2" data-name="Capa 2"><g id="Capa_1-2" data-name="Capa 1"><path class="cls-1" d="M0,16.14V13.69a2.62,2.62,0,0,0,.13-.79A14.49,14.49,0,0,1,3.79,5,14.63,14.63,0,0,1,17.36.19a14,14,0,0,1,7.93,4,14.57,14.57,0,0,1,4.42,12.74,14.37,14.37,0,0,1-4.21,8.51,14.76,14.76,0,0,1-8,4.18c-.23,0-.28,0-.28-.23q0-5,0-9.91c0-.2.05-.26.26-.26.95,0,1.91,0,2.86,0,.4,0,.39,0,.44-.4.18-1.22.37-2.43.56-3.64,0-.23,0-.28-.23-.28H17.5c-.16,0-.25,0-.25-.21,0-.89,0-1.77,0-2.66a2.06,2.06,0,0,1,2-2.22,18.27,18.27,0,0,1,2.09,0c.17,0,.24,0,.24-.22q0-1.63,0-3.27c0-.16-.06-.22-.21-.24a16.73,16.73,0,0,0-4.18-.18,5,5,0,0,0-3.25,1.64,5.66,5.66,0,0,0-1.34,3.75c0,1.12,0,2.25,0,3.38,0,.22-.06.27-.27.27H9.06c-.2,0-.26,0-.26.25,0,1.28,0,2.55,0,3.82,0,.21.06.26.26.25,1.08,0,2.16,0,3.24,0,.24,0,.3.06.3.31q0,4.91,0,9.82v.28l-.07,0c-.21,0-.43-.07-.63-.12A14.76,14.76,0,0,1,4.6,25.68,14.68,14.68,0,0,1,.22,17.47,8.58,8.58,0,0,0,0,16.14Z"/></g></g></svg>