<svg xmlns="http://www.w3.org/2000/svg" viewBox="0 0 35.94 42.43"><defs><style>.cls-1{fill:#0b62b7;stroke:#0b62b7;stroke-miterlimit:10;stroke-width:0.25px;}</style></defs><g id="Capa_2" data-name="Capa 2"><g id="Capa_1-2" data-name="Capa 1"><path class="cls-1" d="M18.29.12,34.74,7a1.83,1.83,0,0,1,.92,1c.26,7,.58,13.62-2.36,20.11-2.65,5.86-8,11.47-14,13.88a2.36,2.36,0,0,1-2.59,0C9.49,39,3.56,32,1.35,24.68-.27,19.29.2,14,.15,8.4A1.79,1.79,0,0,1,1.17,7L17.63.12ZM17.85,3.6l-14.32,6-.08.24c.1,3.68-.26,7.39.36,11A24.24,24.24,0,0,0,18,38.86a24.35,24.35,0,0,0,14-17.21c.82-3.95.47-8,.48-12L18.31,3.69A.72.72,0,0,0,17.85,3.6Z"/><path class="cls-1" d="M24,14.65a1.66,1.66,0,0,1,1.76,2.5c-2.73,2.91-5.65,5.67-8.45,8.53a1.71,1.71,0,0,1-2.31.07c-1.37-1.59-3.35-3-4.66-4.65s.55-3.79,2.4-2.31c1.17.94,2.18,2.43,3.4,3.33l7.06-7A2,2,0,0,1,24,14.65Z"/></g></g></svg>