<svg xmlns="http://www.w3.org/2000/svg" viewBox="0 0 57.97 34.31"><defs><style>.cls-1{fill:#0b62b7;stroke:#0b62b7;stroke-miterlimit:10;stroke-width:0.25px;}</style></defs><g id="Capa_2" data-name="Capa 2"><g id="Capa_1-2" data-name="Capa 1"><path class="cls-1" d="M.12,23.92a2,2,0,0,1,1.64-1.24c3.82.26,8.08-.34,11.84,0a1.7,1.7,0,0,1,.12,3.39c-3.82.36-8.2-.28-12.07,0A1.87,1.87,0,0,1,.12,24.82Z"/><path class="cls-1" d="M25.13.16,54,.13a4.26,4.26,0,0,1,3.87,3.79c-.79,8.79-2,17.57-2.93,26.36a4.32,4.32,0,0,1-4,3.91H22.5a4.33,4.33,0,0,1-4-4.24L21.58,3.48A4.23,4.23,0,0,1,25.13.16Zm8.15,3.35H25.44a1.94,1.94,0,0,0-.43.37,6.76,6.76,0,0,0-.29,1.62C23.58,13.62,23.07,21.84,21.9,30c.07.3.24.69.54.79l28.15.05a.86.86,0,0,0,.94-.74L54.48,4.58a.9.9,0,0,0-.85-1.07l-7.15,0-1.17,8A1.79,1.79,0,0,1,43.48,13a73.08,73.08,0,0,1-9.36,0c-1-.09-1.74-.5-1.86-1.53Zm9.69,0H36.83l-1,6.09h6.31Z"/><path class="cls-1" d="M14.86,16a1.72,1.72,0,0,1-.93,2.89H3.46a1.7,1.7,0,0,1,.11-3.37c3.22.24,7-.35,10.14,0A2.38,2.38,0,0,1,14.86,16Z"/><path class="cls-1" d="M14.86,8.74a1.71,1.71,0,0,1-.93,2.88c-2.59.37-6-.25-8.66,0a1.69,1.69,0,0,1,.11-3.36c2.64.19,5.74-.3,8.33,0A2.28,2.28,0,0,1,14.86,8.74Z"/></g></g></svg>