<svg xmlns="http://www.w3.org/2000/svg" viewBox="0 0 27.36 27.35"><defs><style>.cls-1{fill:#0b62b7;}</style></defs><g id="Capa_2" data-name="Capa 2"><g id="Capa_1-2" data-name="Capa 1"><path class="cls-1" d="M20.36,27.35H7c-.08-.06-.17,0-.26-.05a6.58,6.58,0,0,1-2.15-.57,7.37,7.37,0,0,1-4.57-7C0,15.71,0,11.65,0,7.59a7.15,7.15,0,0,1,1-3.7A7.4,7.4,0,0,1,7.71,0c4,0,8,0,12,0a7.23,7.23,0,0,1,1.54.13,7.49,7.49,0,0,1,5.93,5.63c.11.4.13.82.22,1.23V20.35c-.05.28-.08.56-.14.84a7.47,7.47,0,0,1-5.63,5.94C21.19,27.24,20.77,27.26,20.36,27.35ZM13.71,2.43h-6a5.43,5.43,0,0,0-1.83.28,5.11,5.11,0,0,0-3.48,5v12a5.18,5.18,0,0,0,.28,1.78,5.1,5.1,0,0,0,5,3.48h12a5.34,5.34,0,0,0,1.78-.27,5.1,5.1,0,0,0,3.49-4.95q0-6,0-12a5,5,0,0,0-2.19-4.29,5.12,5.12,0,0,0-3.11-.94Z"/><path class="cls-1" d="M20.73,13.68a7,7,0,1,1-7-7A7.07,7.07,0,0,1,20.73,13.68ZM13.67,9.06a4.62,4.62,0,1,0,4.63,4.6A4.62,4.62,0,0,0,13.67,9.06Z"/><path class="cls-1" d="M21,8.13a1.78,1.78,0,1,1,1.77-1.78A1.79,1.79,0,0,1,21,8.13Z"/></g></g></svg>