<svg xmlns="http://www.w3.org/2000/svg" viewBox="0 0 219.39 36.06"><defs><style>.cls-1{fill:#0b62b7;}</style></defs><g id="Capa_2" data-name="Capa 2"><g id="Capa_1-2" data-name="Capa 1"><path class="cls-1" d="M120,16.78a8,8,0,0,1,3-3.11,8.75,8.75,0,0,1,4.35-1l.46,0,.5,0v3.71h-1.15a7.35,7.35,0,0,0-5.25,1.77,6.52,6.52,0,0,0-1.89,5v8.87h3.42v3.32H112.43V32.06h3.42V16.63h-3.42V13.3H120ZM107,32.06h3.38v3.32h-7.52V32.44A8.7,8.7,0,0,1,99.53,35a11,11,0,0,1-4.48.87A10.88,10.88,0,0,1,87,32.59a11.3,11.3,0,0,1-3.26-8.25A11.37,11.37,0,0,1,87,16.08a11.44,11.44,0,0,1,12.44-2.49,9.66,9.66,0,0,1,3.43,2.61V13.3h7.52v3.33H107ZM88.05,24.34a8.17,8.17,0,0,0,2.17,5.84,7.44,7.44,0,0,0,10.78,0,8.24,8.24,0,0,0,2.15-5.84A8.15,8.15,0,0,0,101,18.53a7.56,7.56,0,0,0-10.83,0A8.15,8.15,0,0,0,88.05,24.34Zm-7,7.72h3.38v3.32H73.53V32.06h3.38V22.13c0-2.32-.3-3.85-.89-4.58a3.67,3.67,0,0,0-3-1.11,7,7,0,0,0-3.41.93,14.71,14.71,0,0,0-3.53,2.88V32.06h3.42v3.32H58.54V32.06H62V16.63H58.54V13.3h7.52v3.14A14.13,14.13,0,0,1,70,13.63a9.84,9.84,0,0,1,4.15-.9,8.35,8.35,0,0,1,3.4.66,6,6,0,0,1,2.43,1.95,5,5,0,0,1,.86,1.72,11.14,11.14,0,0,1,.25,2.74V32.06ZM38.78,24.29A8.06,8.06,0,0,0,41,30.12a7.88,7.88,0,0,0,11.15,0,8,8,0,0,0,2.23-5.85,8,8,0,0,0-2.23-5.84,7.88,7.88,0,0,0-11.15,0A8.05,8.05,0,0,0,38.78,24.29Zm-4.29,0A11,11,0,0,1,38,16a12,12,0,0,1,8.64-3.31A12,12,0,0,1,55.24,16a11,11,0,0,1,3.45,8.25,11.06,11.06,0,0,1-3.45,8.28,11.92,11.92,0,0,1-8.65,3.34A11.93,11.93,0,0,1,38,32.57,11.06,11.06,0,0,1,34.49,24.29Zm-1.76.15A14.83,14.83,0,0,1,27.43,33a15.54,15.54,0,0,1-9.78,3.06A17,17,0,0,1,5,31,17.74,17.74,0,0,1,0,18,17.91,17.91,0,0,1,4.93,5.14,16.45,16.45,0,0,1,17.32,0a17.34,17.34,0,0,1,6,1,11.33,11.33,0,0,1,4.44,2.9V.67h3.76V11.42H28A10.34,10.34,0,0,0,24.2,5.89a11.09,11.09,0,0,0-6.61-1.84A12.07,12.07,0,0,0,8.23,7.87Q4.72,11.67,4.72,18a14.19,14.19,0,0,0,3.65,10.1A12.44,12.44,0,0,0,17.83,32a11,11,0,0,0,6.51-1.88,12.22,12.22,0,0,0,4.1-5.69Z"/><path class="cls-1" d="M215.34,34.87v.6h-1V33.08h1a2.44,2.44,0,0,0,.63,1.15,1.45,1.45,0,0,0,1.05.4,1.13,1.13,0,0,0,.82-.31,1,1,0,0,0,.33-.75.85.85,0,0,0-.29-.66,2.54,2.54,0,0,0-1-.44l-.8-.23a3.05,3.05,0,0,1-1.41-.73,1.72,1.72,0,0,1-.44-1.22,1.94,1.94,0,0,1,.61-1.44,2.15,2.15,0,0,1,1.52-.58,2.45,2.45,0,0,1,.91.16,2.07,2.07,0,0,1,.71.44v-.46h1v2.1h-1a1.89,1.89,0,0,0-.52-.94,1.36,1.36,0,0,0-.9-.31,1.13,1.13,0,0,0-.75.25.84.84,0,0,0-.29.64.76.76,0,0,0,.18.53,1.5,1.5,0,0,0,.65.33l.86.24a3.8,3.8,0,0,1,1.66.84,1.82,1.82,0,0,1,.48,1.33,2.06,2.06,0,0,1-2.19,2.19,2.87,2.87,0,0,1-1-.19,2.37,2.37,0,0,1-.82-.55m-3,.72a.89.89,0,0,1-.63-.25.85.85,0,0,1-.25-.63.81.81,0,0,1,.25-.61.85.85,0,0,1,.63-.25.87.87,0,0,1,.62.25.82.82,0,0,1,.25.61.87.87,0,0,1-.87.88Zm-6.46-1.1h.75v1H204.1v-1h.56l1.78-5.1h-.76v-1h3.62v1h-.82l1.75,5.1h.65v1H208.2v-1H209l-.43-1.29h-2.22Zm.73-2.27h1.6l-.8-2.39Zm-3.79,3.37a.85.85,0,0,1-.88-.88.85.85,0,0,1,.88-.86.87.87,0,0,1,.62.25.83.83,0,0,1,.26.61.85.85,0,0,1-.26.62A.84.84,0,0,1,202.82,35.59Zm-5.75-.72v.6h-1V33.08h1a2.35,2.35,0,0,0,.62,1.15,1.49,1.49,0,0,0,1.06.4,1.12,1.12,0,0,0,.81-.31,1,1,0,0,0,.33-.75.84.84,0,0,0-.28-.66,2.54,2.54,0,0,0-1-.44l-.8-.23a3,3,0,0,1-1.41-.73,1.72,1.72,0,0,1-.44-1.22,1.9,1.9,0,0,1,.61-1.44,2.13,2.13,0,0,1,1.52-.58,2.44,2.44,0,0,1,.9.16,2,2,0,0,1,.72.44v-.46h1v2.1h-1a1.89,1.89,0,0,0-.53-.94,1.33,1.33,0,0,0-.9-.31,1.17,1.17,0,0,0-.75.25.84.84,0,0,0-.29.64.76.76,0,0,0,.19.53,1.44,1.44,0,0,0,.65.33l.85.24a3.85,3.85,0,0,1,1.67.84,1.82,1.82,0,0,1,.48,1.33,2.06,2.06,0,0,1-2.2,2.19,2.82,2.82,0,0,1-1-.19A2.28,2.28,0,0,1,197.07,34.87Z"/><path class="cls-1" d="M178,31.06v4.42h-9.3V30.8H172l6-6.4-6.6-6.66h-2.66V13.06h8.93v3.87l3.46,4.15,3.2-4.15V13.06h8.85v4.68H190l-5.67,6.38L191,30.8h2.17v4.68h-8.81V31.06L181,27.44Zm-10.31-2.19a9.06,9.06,0,0,1-3.94,5.31,13.41,13.41,0,0,1-7.34,1.88,12.51,12.51,0,0,1-9-3.25,11.22,11.22,0,0,1-3.41-8.51,11.14,11.14,0,0,1,3.47-8.46,12.33,12.33,0,0,1,8.88-3.31,11.32,11.32,0,0,1,8.67,3.5,13.12,13.12,0,0,1,3.27,9.33v.57H149.78a5.56,5.56,0,0,0,2.05,4,7.45,7.45,0,0,0,4.76,1.38,8.32,8.32,0,0,0,3.34-.63,5.14,5.14,0,0,0,2.28-1.78ZM149.78,22h13a6.54,6.54,0,0,0-2.32-3.53,6.78,6.78,0,0,0-4.09-1.19,7.29,7.29,0,0,0-4.29,1.24A5.92,5.92,0,0,0,149.78,22Zm-10.5,4.9c0,2,.16,3.18.47,3.62s1.26.64,2.85.64a3.5,3.5,0,0,0,.54-.07l.23,0v4.44c-.57.06-1.18.11-1.8.14s-1.26.05-2,.05c-2.38,0-4-.35-4.73-1.06s-1.15-2.35-1.15-4.92v-12h-3.9V13.06h3.9V5.16h5.55v7.9h4.09v4.68h-4.09Z"/></g></g></svg>